<?xml version="1.0" encoding="utf-8"?>
<!-- Generator: Adobe Illustrator 22.0.0, SVG Export Plug-In . SVG Version: 6.00 Build 0)  -->
<svg version="1.1" id="Capa_1" xmlns="http://www.w3.org/2000/svg" xmlns:xlink="http://www.w3.org/1999/xlink" x="0px" y="0px"
	 viewBox="0 0 956.5 208.6" style="enable-background:new 0 0 956.5 208.6;" xml:space="preserve">
<style type="text/css">
	.st0{fill:#FFFFFF;}
	.st1{fill:#AE9F63;}
	.st2{enable-background:new    ;}
</style>
<g>
	<path class="st0" d="M54.1,1.1C68,1.1,78,5.6,87.4,14c1.2,1.1,1.2,2.8,0.1,3.9l-8.4,8.7c-1,1.1-2.3,1.1-3.4,0
		c-5.8-5.1-13.5-8.1-21.2-8.1c-17.6,0-30.7,14.7-30.7,32.1c0,17.2,13.2,31.8,30.9,31.8c8.3,0,15.3-3.2,21.1-7.9c1.1-1,2.6-0.8,3.4,0
		l8.5,8.8c1.1,1,0.8,2.8-0.1,3.7c-9.4,9.1-21.2,13.4-33.5,13.4c-27.6,0-49.8-21.9-49.8-49.5C4.3,23.3,26.5,1.1,54.1,1.1"/>
	<path class="st0" d="M127.7,5.1c0-1.4,1.2-2.6,2.6-2.6h13.1c1.5,0,2.6,1.2,2.6,2.6v56.4c0,11.7,8,20.9,20,20.9s20.1-9.2,20.1-20.8
		V5.1c0-1.4,1.1-2.6,2.6-2.6h13.1c1.4,0,2.6,1.2,2.6,2.6v57.3c0,20.9-16.7,37.9-38.4,37.9c-21.6,0-38.3-17-38.3-37.9L127.7,5.1
		L127.7,5.1z"/>
	<path class="st0" d="M251.6,5.1c0-1.4,1.1-2.6,2.6-2.6h39.4c16.5,0,30,13.2,30,29.6c0,12.7-8.4,23-20.4,27.8l18.9,35
		c1,1.8,0,4-2.3,4h-14.5c-1.2,0-1.9-0.7-2.2-1.2l-18.3-36.5h-15.3v35.1c0,1.4-1.2,2.6-2.6,2.6h-12.7c-1.5,0-2.6-1.2-2.6-2.6
		L251.6,5.1L251.6,5.1z M292.1,46.5c7.3,0,13.6-6.3,13.6-14.1c0-7.3-6.3-13.4-13.6-13.4h-22.5v27.4L292.1,46.5L292.1,46.5z"/>
	<path class="st0" d="M366.8,5.1c0-1.4,1.1-2.6,2.6-2.6h39.4c16.5,0,30,13.2,30,29.6c0,12.7-8.4,23-20.4,27.8l18.9,35
		c1,1.8,0,4-2.3,4h-14.5c-1.2,0-1.9-0.7-2.2-1.2L400,61.2h-15.3v35.1c0,1.4-1.2,2.6-2.6,2.6h-12.7c-1.5,0-2.6-1.2-2.6-2.6V5.1z
		 M407.3,46.5c7.3,0,13.6-6.3,13.6-14.1c0-7.3-6.3-13.4-13.6-13.4h-22.5v27.4L407.3,46.5L407.3,46.5z"/>
	<path class="st0" d="M482,5.1c0-1.4,1.1-2.6,2.6-2.6h56.1c1.5,0,2.6,1.2,2.6,2.6v11.3c0,1.4-1.1,2.6-2.6,2.6h-40.8v22.6h34
		c1.4,0,2.6,1.2,2.6,2.6v11.4c0,1.5-1.2,2.6-2.6,2.6h-34v24.1h40.8c1.5,0,2.6,1.2,2.6,2.6v11.3c0,1.4-1.1,2.6-2.6,2.6h-56.1
		c-1.5,0-2.6-1.2-2.6-2.6V5.1z"/>
	<path class="st0" d="M586.3,3.6c0-1.4,1.2-2.5,2.6-2.5h3.4L649.6,62h0.1V5.1c0-1.4,1.1-2.6,2.6-2.6H665c1.4,0,2.6,1.2,2.6,2.6v92.7
		c0,1.4-1.2,2.5-2.6,2.5h-3.3L604.1,37H604v59.3c0,1.4-1.1,2.6-2.6,2.6H589c-1.4,0-2.6-1.2-2.6-2.6V3.6H586.3z"/>
	<path class="st0" d="M759,1.1c13.9,0,24,4.4,33.3,12.8c1.2,1.1,1.2,2.8,0.1,3.9l-8.4,8.7c-1,1.1-2.3,1.1-3.4,0
		c-5.8-5.1-13.5-8.1-21.2-8.1c-17.6,0-30.7,14.7-30.7,32.1c0,17.2,13.2,31.8,30.9,31.8c8.3,0,15.3-3.2,21.1-7.9c1.1-1,2.6-0.8,3.4,0
		l8.5,8.8c1.1,1,0.8,2.8-0.1,3.7c-9.4,9.1-21.2,13.4-33.5,13.4c-27.6,0-49.8-21.9-49.8-49.5C709.3,23.3,731.5,1.1,759,1.1"/>
	<path class="st0" d="M852.5,52.5L821,6.5c-1.1-1.8,0-4,2.2-4h14.1c1.1,0,1.8,0.7,2.2,1.2l22,31.7l22-31.7c0.4-0.5,1.1-1.2,2.2-1.2
		H900c2.2,0,3.3,2.2,2.2,4l-31.8,45.9v44c0,1.4-1.2,2.6-2.6,2.6h-12.7c-1.5,0-2.6-1.2-2.6-2.6L852.5,52.5L852.5,52.5z"/>
	<path class="st1" d="M931.7,73.6c-5.6,0-10.2,4.6-10.2,10.2s4.6,10.1,10.2,10.1c5.6,0,10.2-4.5,10.2-10.1
		C941.8,78.2,937.3,73.6,931.7,73.6 M931.7,106.8c-12.7,0-23.1-10.3-23.1-23.1s10.3-23.1,23.1-23.1c12.7,0,23.1,10.3,23.1,23.1
		S944.4,106.8,931.7,106.8"/>
</g>
<g class="st2">
	<path class="st1" d="M705.1,172.9l-6.6,33.3h-18.1l18.3-91.7h34.5c9.2,0,16.3,2.7,21.2,8.2c4.9,5.5,6.5,12.5,4.8,21.1
		c-1.9,9.3-6.1,16.5-12.7,21.6c-6.6,5.1-14.9,7.6-24.9,7.6H705.1z M707.9,158.7h16.4c4.2,0,7.9-1.4,10.9-4.3c3-2.9,5-6.4,5.9-10.6
		c0.9-4.7,0.5-8.4-1.2-11.1c-1.7-2.8-4.9-4.1-9.5-4.1H714L707.9,158.7z"/>
	<path class="st1" d="M798.1,186.4h-28.7l-9.7,19.8h-18.2l47.5-91.7h18.5l10.6,91.7h-18.3L798.1,186.4z M776.4,172h20.3l-3.1-34.4
		l-0.4-0.1L776.4,172z"/>
	<path class="st1" d="M857.3,155.4l0.4,0.1l26.1-41h19.8l-40.9,59.4l-6.4,32.3h-18.1l6.7-33.5l-16.9-58.2h19.9L857.3,155.4z"/>
</g>
</svg>
