<?xml version="1.0" encoding="UTF-8"?>
<svg width="187px" height="20px" viewBox="0 0 187 20" version="1.1" xmlns="http://www.w3.org/2000/svg" xmlns:xlink="http://www.w3.org/1999/xlink">
    <!-- Generator: Sketch 55.2 (78181) - https://sketchapp.com -->
    <title>logo/currency pay/wide</title>
    <desc>Created with Sketch.</desc>
    <defs>
        <polygon id="path-1" points="0.477040816 0.263809524 13.2273878 0.263809524 13.2273878 15.7702857 0.477040816 15.7702857"></polygon>
        <polygon id="path-3" points="0.493355612 0.303809524 11.6531531 0.303809524 11.6531531 11.4285714 0.493355612 11.4285714"></polygon>
    </defs>
    <g id="Symbols" stroke="none" stroke-width="1" fill="none" fill-rule="evenodd">
        <g id="Header-/-Currency-Pay" transform="translate(-52.000000, -15.000000)">
            <g id="logo/currency-pay/wide" transform="translate(52.000000, 15.000000)">
                <g id="Group-27">
                    <path d="M7.78921786,0.952571429 C9.96738622,0.952571429 11.542575,1.64209524 13.0099526,2.95542857 C13.2036311,3.12780952 13.2036311,3.38590476 13.0309423,3.55828571 L11.7152638,4.91542857 C11.5645189,5.08780952 11.3469883,5.08780952 11.1762077,4.91542857 C10.2698301,4.11828571 9.06100867,3.64495238 7.85218724,3.64495238 C5.09202908,3.64495238 3.04266173,5.9487619 3.04266173,8.66304762 C3.04266173,11.3544762 5.11301888,13.6373333 7.8750852,13.6373333 C9.16977398,13.6373333 10.2698301,13.1411429 11.1762077,12.4097143 C11.3469883,12.2592381 11.5855087,12.2801905 11.7152638,12.4097143 L13.0528862,13.7878095 C13.2246209,13.9382857 13.1816872,14.2182857 13.0309423,14.3687619 C11.5645189,15.7906667 9.7088301,16.4582857 7.78921786,16.4582857 C3.47486071,16.4582857 9.54081633e-05,13.0344762 9.54081633e-05,8.72685714 C9.54081633e-05,4.4192381 3.47486071,0.952571429 7.78921786,0.952571429" id="Fill-1" fill="#003B5C"></path>
                    <path d="M19.3117571,1.57752381 C19.3117571,1.36133333 19.5054357,1.168 19.7210582,1.168 L21.7713796,1.168 C22.0079918,1.168 22.1806806,1.36133333 22.1806806,1.57752381 L22.1806806,10.3851429 C22.1806806,12.2165714 23.4314816,13.6584762 25.3091143,13.6584762 C27.1857929,13.6584762 28.4585378,12.2165714 28.4585378,10.4070476 L28.4585378,1.57752381 C28.4585378,1.36133333 28.6321806,1.168 28.8687929,1.168 L30.9181602,1.168 C31.1347367,1.168 31.3284153,1.36133333 31.3284153,1.57752381 L31.3284153,10.5365714 C31.3284153,13.8089524 28.7170939,16.4584762 25.3091143,16.4584762 C21.9221245,16.4584762 19.3117571,13.8089524 19.3117571,10.5365714 L19.3117571,1.57752381 Z" id="Fill-3" fill="#003B5C"></path>
                    <path d="M38.7073781,1.57752381 C38.7073781,1.36133333 38.8800668,1.168 39.1176332,1.168 L45.286725,1.168 C47.8751485,1.168 49.9903474,3.23561905 49.9903474,5.79752381 C49.9903474,7.78038095 48.6737148,9.39466667 46.7970362,10.1489524 L49.7527811,15.6184762 C49.903526,15.8984762 49.7527811,16.2422857 49.3864138,16.2422857 L47.1204699,16.2422857 C46.9277454,16.2422857 46.8189801,16.135619 46.7770005,16.0499048 L43.9061689,10.3422857 L41.511424,10.3422857 L41.511424,15.8337143 C41.511424,16.0499048 41.3177454,16.2422857 41.103077,16.2422857 L39.1176332,16.2422857 C38.8800668,16.2422857 38.7073781,16.0499048 38.7073781,15.8337143 L38.7073781,1.57752381 Z M45.0501128,8.03847619 C46.1931026,8.03847619 47.1863015,7.04704762 47.1863015,5.84133333 C47.1863015,4.70038095 46.1931026,3.7527619 45.0501128,3.7527619 L41.5343219,3.7527619 L41.5343219,8.03847619 L45.0501128,8.03847619 Z" id="Fill-5" fill="#003B5C"></path>
                    <path d="M56.7445776,1.57752381 C56.7445776,1.36133333 56.9172663,1.168 57.1557867,1.168 L63.3239245,1.168 C65.913302,1.168 68.028501,3.23561905 68.028501,5.79752381 C68.028501,7.78038095 66.7109143,9.39466667 64.8342357,10.1489524 L67.7909347,15.6184762 C67.9416796,15.8984762 67.7909347,16.2422857 67.4236133,16.2422857 L65.1576694,16.2422857 C64.9649449,16.2422857 64.8561796,16.135619 64.8142,16.0499048 L61.9433684,10.3422857 L59.5476694,10.3422857 L59.5476694,15.8337143 C59.5476694,16.0499048 59.3549449,16.2422857 59.1402765,16.2422857 L57.1557867,16.2422857 C56.9172663,16.2422857 56.7445776,16.0499048 56.7445776,15.8337143 L56.7445776,1.57752381 Z M63.0863582,8.03847619 C64.2312561,8.03847619 65.223501,7.04704762 65.223501,5.84133333 C65.223501,4.70038095 64.2312561,3.7527619 63.0863582,3.7527619 L59.5715214,3.7527619 L59.5715214,8.03847619 L63.0863582,8.03847619 Z" id="Fill-7" fill="#003B5C"></path>
                    <path d="M74.781777,1.57752381 C74.781777,1.36133333 74.9554199,1.168 75.1929862,1.168 L83.9724454,1.168 C84.2109658,1.168 84.3827005,1.36133333 84.3827005,1.57752381 L84.3827005,3.3432381 C84.3827005,3.55847619 84.2109658,3.7527619 83.9724454,3.7527619 L77.585823,3.7527619 L77.585823,7.28419048 L82.915323,7.28419048 C83.1318995,7.28419048 83.3255781,7.47752381 83.3255781,7.6927619 L83.3255781,9.48038095 C83.3255781,9.71752381 83.1318995,9.89085714 82.915323,9.89085714 L77.585823,9.89085714 L77.585823,13.6584762 L83.9724454,13.6584762 C84.2109658,13.6584762 84.3827005,13.8527619 84.3827005,14.0670476 L84.3827005,15.8337143 C84.3827005,16.0499048 84.2109658,16.2422857 83.9724454,16.2422857 L75.1929862,16.2422857 C74.9554199,16.2422857 74.781777,16.0499048 74.781777,15.8337143 L74.781777,1.57752381 Z" id="Fill-9" fill="#003B5C"></path>
                    <g id="Group-13" transform="translate(90.637755, 0.688667)">
                        <mask id="mask-2" fill="white">
                            <use xlink:href="#path-1"></use>
                        </mask>
                        <g id="Clip-12"></g>
                        <path d="M0.477040816,0.652190476 C0.477040816,0.436 0.671673469,0.263619048 0.88825,0.263619048 L1.42635204,0.263619048 L10.401398,9.78266667 L10.4233418,9.78266667 L10.4233418,0.888380952 C10.4233418,0.673142857 10.5950765,0.479809524 10.8326429,0.479809524 L12.8180867,0.479809524 C13.0327551,0.479809524 13.2273878,0.673142857 13.2273878,0.888380952 L13.2273878,15.3817143 C13.2273878,15.5969524 13.0327551,15.7702857 12.8180867,15.7702857 L12.3000204,15.7702857 L3.28108673,5.88457143 L3.26105102,5.88457143 L3.26105102,15.1455238 C3.26105102,15.3607619 3.08740816,15.5540952 2.85079592,15.5540952 L0.88825,15.5540952 C0.671673469,15.5540952 0.477040816,15.3607619 0.477040816,15.1455238 L0.477040816,0.652190476 Z" id="Fill-11" fill="#003B5C" mask="url(#mask-2)"></path>
                    </g>
                    <path d="M118.150512,0.952571429 C120.32868,0.952571429 121.903869,1.64209524 123.372201,2.95542857 C123.564925,3.12780952 123.564925,3.38590476 123.392236,3.55828571 L122.076558,4.91542857 C121.925813,5.08780952 121.708282,5.08780952 121.538456,4.91542857 C120.631124,4.11828571 119.422303,3.64495238 118.214435,3.64495238 C115.453323,3.64495238 113.403002,5.9487619 113.403002,8.66304762 C113.403002,11.3544762 115.474313,13.6373333 118.236379,13.6373333 C119.531068,13.6373333 120.631124,13.1411429 121.538456,12.4097143 C121.708282,12.2592381 121.946803,12.2801905 122.076558,12.4097143 L123.41418,13.7878095 C123.586869,13.9382857 123.542981,14.2182857 123.392236,14.3687619 C121.925813,15.7906667 120.070124,16.4582857 118.150512,16.4582857 C113.836155,16.4582857 110.361389,13.0344762 110.361389,8.72685714 C110.361389,4.4192381 113.836155,0.952571429 118.150512,0.952571429" id="Fill-14" fill="#003B5C"></path>
                    <path d="M132.778491,8.986 L127.859246,1.79266667 C127.687512,1.51266667 127.859246,1.16885714 128.204624,1.16885714 L130.40569,1.16885714 C130.578379,1.16885714 130.68619,1.27552381 130.751068,1.3612381 L134.201981,6.31552381 L137.654803,1.3612381 C137.718726,1.27552381 137.826537,1.16885714 137.999226,1.16885714 L140.222236,1.16885714 C140.567614,1.16885714 140.739348,1.51266667 140.567614,1.79266667 L135.581583,8.96409524 L135.581583,15.833619 C135.581583,16.0498095 135.387905,16.2431429 135.17419,16.2431429 L133.188746,16.2431429 C132.95118,16.2431429 132.778491,16.0498095 132.778491,15.833619 L132.778491,8.986 Z" id="Fill-16" fill="#003B5C"></path>
                    <path d="M145.17974,12.278381 C144.302939,12.278381 143.59024,12.9907619 143.59024,13.8650476 C143.59024,14.7393333 144.302939,15.4517143 145.17974,15.4517143 C146.055587,15.4517143 146.76924,14.7393333 146.76924,13.8650476 C146.76924,12.9907619 146.055587,12.278381 145.17974,12.278381 M145.17974,17.4688571 C143.188571,17.4688571 141.568541,15.8517143 141.568541,13.8650476 C141.568541,11.8774286 143.188571,10.2602857 145.17974,10.2602857 C147.170908,10.2602857 148.789985,11.8774286 148.789985,13.8650476 C148.789985,15.8517143 147.170908,17.4688571 145.17974,17.4688571" id="Fill-18" fill="#B3A369"></path>
                    <path d="M160.161779,6.72219048 L159.501555,10.3802857 L160.522422,10.3802857 C161.403039,10.3802857 162.079483,10.206 162.549845,9.85552381 C163.020208,9.506 163.255866,8.9707619 163.255866,8.25171429 C163.255866,7.71171429 163.123248,7.32219048 162.85706,7.08219048 C162.591825,6.84219048 162.138636,6.72219048 161.498447,6.72219048 L160.161779,6.72219048 Z M162.520269,5.11742857 C163.089856,5.11742857 163.606014,5.16314286 164.066835,5.25361905 C164.526703,5.34314286 164.915968,5.50028571 165.238447,5.72504762 C165.558065,5.94980952 165.803264,6.25552381 165.974044,6.64028571 C166.144825,7.02504762 166.22783,7.50695238 166.22783,8.08695238 C166.22783,8.71647619 166.111432,9.27361905 165.876728,9.75838095 C165.64107,10.2431429 165.312866,10.6507619 164.89307,10.9802857 C164.47232,11.3098095 163.963794,11.5602857 163.368447,11.7298095 C162.772146,11.9002857 162.11383,11.9850476 161.393498,11.9850476 L159.228687,11.9850476 L158.780269,14.458381 C158.780269,14.8488571 159.30883,15.0431429 160.371677,15.0431429 L160.161779,16.2574286 L154.019402,16.2574286 L154.214034,15.0431429 C154.604254,15.0431429 154.93532,14.986 155.212958,14.8707619 C155.488687,14.7564762 155.649927,14.5831429 155.700493,14.353619 L157.006631,6.91742857 C157.006631,6.53742857 156.591606,6.34695238 155.761555,6.34695238 L155.985764,5.11742857 L162.520269,5.11742857 Z" id="Fill-20" fill="#0091C8"></path>
                    <path d="M171.741182,12.0895238 C171.201171,12.3 170.720314,12.4742857 170.299564,12.6142857 C169.878814,12.7542857 169.523896,12.8942857 169.232901,13.0342857 C168.940952,13.1742857 168.719605,13.3390476 168.565044,13.5285714 C168.409529,13.7190476 168.332248,13.9685714 168.332248,14.2780952 C168.332248,14.4780952 168.401896,14.6457143 168.542146,14.7809524 C168.682396,14.9161905 168.918054,14.9838095 169.248166,14.9838095 C169.697539,14.9838095 170.117335,14.8809524 170.50183,14.6761905 C170.886324,14.4704762 171.201171,14.1933333 171.4416,13.8438095 L171.741182,12.0895238 Z M173.934615,14.5038095 C173.92412,14.5533333 173.913626,14.6085714 173.905039,14.6685714 C173.894544,14.7285714 173.889773,14.7733333 173.889773,14.8038095 C173.889773,15.0638095 174.009034,15.1933333 174.249462,15.1933333 C174.380171,15.1933333 174.48512,15.147619 174.565263,15.0580952 C174.645406,14.967619 174.706467,14.8533333 174.753217,14.7133333 C174.798059,14.5733333 174.832406,14.4238095 174.858166,14.2638095 C174.882972,14.1038095 174.910641,13.9485714 174.941171,13.7990476 L175.812248,13.7990476 L175.751187,14.1438095 C175.671044,14.5933333 175.556554,14.9638095 175.406763,15.2533333 C175.256972,15.5428571 175.080467,15.7704762 174.88011,15.9352381 C174.679753,16.1 174.45459,16.212381 174.20462,16.272381 C173.953697,16.332381 173.688462,16.3628571 173.408916,16.3628571 C173.057814,16.3628571 172.764911,16.3171429 172.530207,16.227619 C172.294549,16.1371429 172.104687,16.02 171.959666,15.8752381 C171.813692,15.7304762 171.708743,15.567619 171.642911,15.387619 C171.578034,15.207619 171.536054,15.027619 171.516972,14.8485714 C171.375768,15.0685714 171.198309,15.2780952 170.982687,15.4780952 C170.767064,15.6780952 170.522819,15.8533333 170.24709,16.0028571 C169.972314,16.152381 169.663192,16.272381 169.323539,16.3628571 C168.981978,16.452381 168.622289,16.4971429 168.24161,16.4971429 C167.360039,16.4971429 166.721758,16.3571429 166.326768,16.0771429 C165.930824,15.7980952 165.73333,15.4028571 165.73333,14.8933333 C165.73333,14.3638095 165.8316,13.9314286 166.027187,13.5961905 C166.221819,13.2609524 166.48133,12.9942857 166.807626,12.7942857 C167.132967,12.5942857 167.507921,12.4419048 167.934396,12.3371429 C168.359916,12.2314286 168.79784,12.1419048 169.248166,12.067619 C169.697539,11.992381 170.146911,11.9142857 170.592467,11.8342857 C171.038023,11.7542857 171.451141,11.64 171.831819,11.4904762 C171.871891,11.3504762 171.898605,11.2047619 171.914824,11.0552381 C171.929136,10.9047619 171.936768,10.7657143 171.936768,10.6352381 C171.936768,10.2352381 171.828957,9.92095238 171.613335,9.69047619 C171.398666,9.46095238 171.036115,9.34571429 170.525682,9.34571429 C169.75383,9.34571429 169.123182,9.50095238 168.63183,9.81047619 C168.842682,9.83047619 169.024911,9.89047619 169.179472,9.99047619 C169.335942,10.0904762 169.414177,10.2704762 169.414177,10.5304762 C169.414177,10.84 169.288238,11.1 169.038268,11.3104762 C168.787345,11.52 168.452462,11.6247619 168.030758,11.6247619 C167.290391,11.6247619 166.920207,11.32 166.920207,10.7104762 C166.920207,10.4104762 167.012753,10.1180952 167.197845,9.83333333 C167.383891,9.54857143 167.656758,9.29333333 168.016447,9.06857143 C168.37709,8.84380952 168.815013,8.66380952 169.331171,8.52857143 C169.846376,8.39428571 170.435044,8.32666667 171.095268,8.32666667 C171.495983,8.32666667 171.901467,8.36666667 172.312677,8.44666667 C172.721978,8.52666667 173.093115,8.65904762 173.424182,8.84380952 C173.752386,9.02857143 174.025253,9.27142857 174.234197,9.57047619 C174.445049,9.87047619 174.549998,10.2457143 174.549998,10.6952381 C174.549998,10.7952381 174.544273,10.9 174.534733,11.0104762 C174.525192,11.12 174.509927,11.2304762 174.489891,11.34 L173.934615,14.5038095 Z" id="Fill-22" fill="#0091C8"></path>
                    <g id="Group-26" transform="translate(174.596939, 8.307714)">
                        <mask id="mask-4" fill="white">
                            <use xlink:href="#path-3"></use>
                        </mask>
                        <g id="Clip-25"></g>
                        <path d="M11.4433505,1.51809524 C10.8022077,1.51809524 10.3871821,1.68857143 10.1963658,2.02761905 L6.41152398,8.4152381 C6.13102398,8.8847619 5.85624847,9.30380952 5.5843352,9.67428571 C5.31528418,10.0438095 5.02905969,10.3590476 4.72947806,10.6190476 C4.42703418,10.8780952 4.10360051,11.0780952 3.75249847,11.2180952 C3.40235051,11.3580952 3.00640663,11.4285714 2.566575,11.4285714 C1.95596276,11.4285714 1.45697806,11.2733333 1.07248316,10.9628571 C0.687034184,10.6533333 0.493355612,10.1590476 0.493355612,9.47904762 C0.493355612,9.31904762 0.52102398,9.15904762 0.575406633,8.99904762 C0.631697449,8.83904762 0.713748469,8.69428571 0.823467857,8.5647619 C0.934141327,8.43428571 1.07916173,8.32952381 1.25948316,8.24952381 C1.43980459,8.16952381 1.65447296,8.12952381 1.90539643,8.12952381 C2.60569235,8.12952381 2.95679439,8.4 2.95679439,8.93904762 C2.95679439,8.99904762 2.94439133,9.08666667 2.91767704,9.20190476 C2.893825,9.31619048 2.84421276,9.42952381 2.76884031,9.53904762 C2.69346786,9.64952381 2.58661071,9.74666667 2.44540663,9.83142857 C2.30611071,9.91619048 2.12388112,9.95904762 1.90539643,9.95904762 C1.96550357,10.0942857 2.06568214,10.2028571 2.20402398,10.2857143 C2.34618214,10.367619 2.59138112,10.4085714 2.94248316,10.4085714 C3.26210051,10.4085714 3.56740663,10.2942857 3.85840153,10.0647619 C4.14844235,9.83428571 4.42417194,9.4952381 4.68368214,9.04666667 L2.91195255,2.04190476 C2.86138622,1.87238095 2.74689643,1.74285714 2.566575,1.65333333 C2.38625357,1.56285714 2.17540153,1.51809524 1.93592704,1.51809524 L2.145825,0.303809524 L6.727325,0.303809524 L6.51647296,1.51809524 L6.02035051,1.51809524 C5.85052398,1.51809524 5.73030969,1.55809524 5.65970765,1.63809524 C5.59005969,1.71809524 5.55475867,1.84285714 5.55475867,2.01333333 L6.47163112,6.25619048 L8.90453929,2.16285714 C8.97418724,2.05333333 9.00948827,1.94285714 9.00948827,1.83333333 C9.00948827,1.62285714 8.83012092,1.51809524 8.46947806,1.51809524 L8.13841173,1.51809524 L8.34926378,0.303809524 L11.6532485,0.303809524 L11.4433505,1.51809524 Z" id="Fill-24" fill="#0091C8" mask="url(#mask-4)"></path>
                    </g>
                </g>
            </g>
        </g>
    </g>
</svg>